<mxfile host="app.diagrams.net" agent="Mozilla/5.0 (X11; Linux x86_64) AppleWebKit/537.36 (KHTML, like Gecko) Chrome/130.0.0.0 Safari/537.36" version="24.8.4">
  <diagram name="Page-1" id="2YBvvXClWsGukQMizWep">
    <mxGraphModel dx="1434" dy="754" grid="1" gridSize="10" guides="1" tooltips="1" connect="1" arrows="1" fold="1" page="1" pageScale="1" pageWidth="850" pageHeight="1100" math="0" shadow="0">
      <root>
        <mxCell id="0" />
        <mxCell id="1" parent="0" />
        <mxCell id="aM9ryv3xv72pqoxQDRHE-1" value="Parameter setting&lt;div&gt;(user)&lt;/div&gt;" style="shape=umlLifeline;perimeter=lifelinePerimeter;whiteSpace=wrap;html=1;container=0;dropTarget=0;collapsible=0;recursiveResize=0;outlineConnect=0;portConstraint=eastwest;newEdgeStyle={&quot;edgeStyle&quot;:&quot;elbowEdgeStyle&quot;,&quot;elbow&quot;:&quot;vertical&quot;,&quot;curved&quot;:0,&quot;rounded&quot;:0};" parent="1" vertex="1">
          <mxGeometry x="40" y="40" width="100" height="630" as="geometry" />
        </mxCell>
        <mxCell id="aM9ryv3xv72pqoxQDRHE-2" value="" style="html=1;points=[];perimeter=orthogonalPerimeter;outlineConnect=0;targetShapes=umlLifeline;portConstraint=eastwest;newEdgeStyle={&quot;edgeStyle&quot;:&quot;elbowEdgeStyle&quot;,&quot;elbow&quot;:&quot;vertical&quot;,&quot;curved&quot;:0,&quot;rounded&quot;:0};" parent="aM9ryv3xv72pqoxQDRHE-1" vertex="1">
          <mxGeometry x="45" y="80" width="10" height="510" as="geometry" />
        </mxCell>
        <mxCell id="aM9ryv3xv72pqoxQDRHE-3" value="dispatch" style="html=1;verticalAlign=bottom;startArrow=oval;endArrow=block;startSize=8;edgeStyle=elbowEdgeStyle;elbow=vertical;curved=0;rounded=0;" parent="aM9ryv3xv72pqoxQDRHE-1" target="aM9ryv3xv72pqoxQDRHE-2" edge="1">
          <mxGeometry relative="1" as="geometry">
            <mxPoint x="-15" y="70" as="sourcePoint" />
          </mxGeometry>
        </mxCell>
        <mxCell id="aM9ryv3xv72pqoxQDRHE-5" value="Controller&amp;nbsp;" style="shape=umlLifeline;perimeter=lifelinePerimeter;whiteSpace=wrap;html=1;container=0;dropTarget=0;collapsible=0;recursiveResize=0;outlineConnect=0;portConstraint=eastwest;newEdgeStyle={&quot;edgeStyle&quot;:&quot;elbowEdgeStyle&quot;,&quot;elbow&quot;:&quot;vertical&quot;,&quot;curved&quot;:0,&quot;rounded&quot;:0};" parent="1" vertex="1">
          <mxGeometry x="190" y="40" width="100" height="630" as="geometry" />
        </mxCell>
        <mxCell id="OxUR2oeyCinwsfpec9Tg-19" style="edgeStyle=elbowEdgeStyle;rounded=0;orthogonalLoop=1;jettySize=auto;html=1;elbow=vertical;curved=0;" edge="1" parent="aM9ryv3xv72pqoxQDRHE-5" source="aM9ryv3xv72pqoxQDRHE-6" target="aM9ryv3xv72pqoxQDRHE-5">
          <mxGeometry relative="1" as="geometry" />
        </mxCell>
        <mxCell id="aM9ryv3xv72pqoxQDRHE-6" value="" style="html=1;points=[];perimeter=orthogonalPerimeter;outlineConnect=0;targetShapes=umlLifeline;portConstraint=eastwest;newEdgeStyle={&quot;edgeStyle&quot;:&quot;elbowEdgeStyle&quot;,&quot;elbow&quot;:&quot;vertical&quot;,&quot;curved&quot;:0,&quot;rounded&quot;:0};" parent="aM9ryv3xv72pqoxQDRHE-5" vertex="1">
          <mxGeometry x="45" y="80" width="10" height="410" as="geometry" />
        </mxCell>
        <mxCell id="aM9ryv3xv72pqoxQDRHE-7" value="Send setting" style="html=1;verticalAlign=bottom;endArrow=block;edgeStyle=elbowEdgeStyle;elbow=horizontal;curved=0;rounded=0;" parent="1" source="aM9ryv3xv72pqoxQDRHE-2" target="aM9ryv3xv72pqoxQDRHE-6" edge="1">
          <mxGeometry relative="1" as="geometry">
            <mxPoint x="195" y="130" as="sourcePoint" />
            <Array as="points">
              <mxPoint x="180" y="120" />
            </Array>
          </mxGeometry>
        </mxCell>
        <mxCell id="OxUR2oeyCinwsfpec9Tg-1" value="comutator" style="shape=umlLifeline;perimeter=lifelinePerimeter;whiteSpace=wrap;html=1;container=0;dropTarget=0;collapsible=0;recursiveResize=0;outlineConnect=0;portConstraint=eastwest;newEdgeStyle={&quot;edgeStyle&quot;:&quot;elbowEdgeStyle&quot;,&quot;elbow&quot;:&quot;vertical&quot;,&quot;curved&quot;:0,&quot;rounded&quot;:0};" vertex="1" parent="1">
          <mxGeometry x="380" y="40" width="100" height="600" as="geometry" />
        </mxCell>
        <mxCell id="OxUR2oeyCinwsfpec9Tg-2" value="" style="html=1;points=[];perimeter=orthogonalPerimeter;outlineConnect=0;targetShapes=umlLifeline;portConstraint=eastwest;newEdgeStyle={&quot;edgeStyle&quot;:&quot;elbowEdgeStyle&quot;,&quot;elbow&quot;:&quot;vertical&quot;,&quot;curved&quot;:0,&quot;rounded&quot;:0};" vertex="1" parent="OxUR2oeyCinwsfpec9Tg-1">
          <mxGeometry x="45" y="100" width="10" height="60" as="geometry" />
        </mxCell>
        <mxCell id="OxUR2oeyCinwsfpec9Tg-3" value="encoder" style="shape=umlLifeline;perimeter=lifelinePerimeter;whiteSpace=wrap;html=1;container=0;dropTarget=0;collapsible=0;recursiveResize=0;outlineConnect=0;portConstraint=eastwest;newEdgeStyle={&quot;edgeStyle&quot;:&quot;elbowEdgeStyle&quot;,&quot;elbow&quot;:&quot;vertical&quot;,&quot;curved&quot;:0,&quot;rounded&quot;:0};" vertex="1" parent="1">
          <mxGeometry x="670" y="40" width="100" height="420" as="geometry" />
        </mxCell>
        <mxCell id="OxUR2oeyCinwsfpec9Tg-4" value="" style="html=1;points=[];perimeter=orthogonalPerimeter;outlineConnect=0;targetShapes=umlLifeline;portConstraint=eastwest;newEdgeStyle={&quot;edgeStyle&quot;:&quot;elbowEdgeStyle&quot;,&quot;elbow&quot;:&quot;vertical&quot;,&quot;curved&quot;:0,&quot;rounded&quot;:0};" vertex="1" parent="OxUR2oeyCinwsfpec9Tg-3">
          <mxGeometry x="45" y="135" width="10" height="105" as="geometry" />
        </mxCell>
        <mxCell id="OxUR2oeyCinwsfpec9Tg-37" value="" style="html=1;points=[];perimeter=orthogonalPerimeter;outlineConnect=0;targetShapes=umlLifeline;portConstraint=eastwest;newEdgeStyle={&quot;edgeStyle&quot;:&quot;elbowEdgeStyle&quot;,&quot;elbow&quot;:&quot;vertical&quot;,&quot;curved&quot;:0,&quot;rounded&quot;:0};" vertex="1" parent="OxUR2oeyCinwsfpec9Tg-3">
          <mxGeometry x="45" y="295" width="10" height="105" as="geometry" />
        </mxCell>
        <mxCell id="OxUR2oeyCinwsfpec9Tg-8" style="edgeStyle=elbowEdgeStyle;rounded=0;orthogonalLoop=1;jettySize=auto;html=1;elbow=vertical;curved=0;" edge="1" parent="1">
          <mxGeometry relative="1" as="geometry">
            <mxPoint x="241" y="144.65137931034488" as="sourcePoint" />
            <mxPoint x="425.5000000000002" y="144.65137931034488" as="targetPoint" />
          </mxGeometry>
        </mxCell>
        <mxCell id="OxUR2oeyCinwsfpec9Tg-10" value="Motor" style="shape=umlLifeline;perimeter=lifelinePerimeter;whiteSpace=wrap;html=1;container=0;dropTarget=0;collapsible=0;recursiveResize=0;outlineConnect=0;portConstraint=eastwest;newEdgeStyle={&quot;edgeStyle&quot;:&quot;elbowEdgeStyle&quot;,&quot;elbow&quot;:&quot;vertical&quot;,&quot;curved&quot;:0,&quot;rounded&quot;:0};" vertex="1" parent="1">
          <mxGeometry x="520" y="40" width="100" height="600" as="geometry" />
        </mxCell>
        <mxCell id="OxUR2oeyCinwsfpec9Tg-11" value="" style="html=1;points=[];perimeter=orthogonalPerimeter;outlineConnect=0;targetShapes=umlLifeline;portConstraint=eastwest;newEdgeStyle={&quot;edgeStyle&quot;:&quot;elbowEdgeStyle&quot;,&quot;elbow&quot;:&quot;vertical&quot;,&quot;curved&quot;:0,&quot;rounded&quot;:0};" vertex="1" parent="OxUR2oeyCinwsfpec9Tg-10">
          <mxGeometry x="45" y="120" width="10" height="60" as="geometry" />
        </mxCell>
        <mxCell id="OxUR2oeyCinwsfpec9Tg-30" value="" style="html=1;points=[];perimeter=orthogonalPerimeter;outlineConnect=0;targetShapes=umlLifeline;portConstraint=eastwest;newEdgeStyle={&quot;edgeStyle&quot;:&quot;elbowEdgeStyle&quot;,&quot;elbow&quot;:&quot;vertical&quot;,&quot;curved&quot;:0,&quot;rounded&quot;:0};" vertex="1" parent="OxUR2oeyCinwsfpec9Tg-10">
          <mxGeometry x="45" y="240" width="10" height="80" as="geometry" />
        </mxCell>
        <mxCell id="OxUR2oeyCinwsfpec9Tg-12" style="edgeStyle=elbowEdgeStyle;rounded=0;orthogonalLoop=1;jettySize=auto;html=1;elbow=vertical;curved=0;" edge="1" parent="1" source="OxUR2oeyCinwsfpec9Tg-2" target="OxUR2oeyCinwsfpec9Tg-10">
          <mxGeometry relative="1" as="geometry" />
        </mxCell>
        <mxCell id="OxUR2oeyCinwsfpec9Tg-15" value="Send signal" style="text;html=1;align=center;verticalAlign=middle;whiteSpace=wrap;rounded=0;" vertex="1" parent="1">
          <mxGeometry x="300" y="110" width="60" height="30" as="geometry" />
        </mxCell>
        <mxCell id="OxUR2oeyCinwsfpec9Tg-16" value="PWM" style="text;html=1;align=center;verticalAlign=middle;resizable=0;points=[];autosize=1;strokeColor=none;fillColor=none;" vertex="1" parent="1">
          <mxGeometry x="470" y="130" width="50" height="30" as="geometry" />
        </mxCell>
        <mxCell id="OxUR2oeyCinwsfpec9Tg-17" style="edgeStyle=elbowEdgeStyle;rounded=0;orthogonalLoop=1;jettySize=auto;html=1;elbow=vertical;curved=0;" edge="1" parent="1" source="OxUR2oeyCinwsfpec9Tg-11" target="OxUR2oeyCinwsfpec9Tg-3">
          <mxGeometry relative="1" as="geometry" />
        </mxCell>
        <mxCell id="OxUR2oeyCinwsfpec9Tg-18" value="Cảm biến" style="text;html=1;align=center;verticalAlign=middle;resizable=0;points=[];autosize=1;strokeColor=none;fillColor=none;" vertex="1" parent="1">
          <mxGeometry x="610" y="150" width="70" height="30" as="geometry" />
        </mxCell>
        <mxCell id="OxUR2oeyCinwsfpec9Tg-20" value="" style="endArrow=classic;html=1;rounded=0;" edge="1" parent="1" target="aM9ryv3xv72pqoxQDRHE-6">
          <mxGeometry width="50" height="50" relative="1" as="geometry">
            <mxPoint x="714.9999999999998" y="260" as="sourcePoint" />
            <mxPoint x="500" y="260" as="targetPoint" />
          </mxGeometry>
        </mxCell>
        <mxCell id="OxUR2oeyCinwsfpec9Tg-21" value="thông số của motor" style="text;html=1;align=center;verticalAlign=middle;resizable=0;points=[];autosize=1;strokeColor=none;fillColor=none;" vertex="1" parent="1">
          <mxGeometry x="265" y="220" width="130" height="30" as="geometry" />
        </mxCell>
        <mxCell id="OxUR2oeyCinwsfpec9Tg-22" value="" style="endArrow=classic;html=1;rounded=0;" edge="1" parent="1" source="OxUR2oeyCinwsfpec9Tg-5">
          <mxGeometry width="50" height="50" relative="1" as="geometry">
            <mxPoint x="245" y="330" as="sourcePoint" />
            <mxPoint x="869.5" y="330" as="targetPoint" />
          </mxGeometry>
        </mxCell>
        <mxCell id="OxUR2oeyCinwsfpec9Tg-25" value="" style="endArrow=classic;html=1;rounded=0;" edge="1" parent="1">
          <mxGeometry width="50" height="50" relative="1" as="geometry">
            <mxPoint x="869.5" y="580" as="sourcePoint" />
            <mxPoint x="90" y="580" as="targetPoint" />
            <Array as="points">
              <mxPoint x="480" y="580" />
            </Array>
          </mxGeometry>
        </mxCell>
        <mxCell id="OxUR2oeyCinwsfpec9Tg-26" value="Trả về thông tin cho người điều chỉnh" style="text;html=1;align=center;verticalAlign=middle;resizable=0;points=[];autosize=1;strokeColor=none;fillColor=none;" vertex="1" parent="1">
          <mxGeometry x="380" y="580" width="220" height="30" as="geometry" />
        </mxCell>
        <mxCell id="OxUR2oeyCinwsfpec9Tg-27" value="" style="endArrow=classic;html=1;rounded=0;" edge="1" parent="1">
          <mxGeometry width="50" height="50" relative="1" as="geometry">
            <mxPoint x="240" y="510" as="sourcePoint" />
            <mxPoint x="864.5" y="510" as="targetPoint" />
          </mxGeometry>
        </mxCell>
        <mxCell id="OxUR2oeyCinwsfpec9Tg-28" value="Gửi thông tin để hiển thị&amp;nbsp;" style="edgeLabel;html=1;align=center;verticalAlign=middle;resizable=0;points=[];" vertex="1" connectable="0" parent="OxUR2oeyCinwsfpec9Tg-27">
          <mxGeometry x="-0.126" y="1" relative="1" as="geometry">
            <mxPoint x="-13" y="-19" as="offset" />
          </mxGeometry>
        </mxCell>
        <mxCell id="OxUR2oeyCinwsfpec9Tg-5" value="LCD" style="shape=umlLifeline;perimeter=lifelinePerimeter;whiteSpace=wrap;html=1;container=0;dropTarget=0;collapsible=0;recursiveResize=0;outlineConnect=0;portConstraint=eastwest;newEdgeStyle={&quot;edgeStyle&quot;:&quot;elbowEdgeStyle&quot;,&quot;elbow&quot;:&quot;vertical&quot;,&quot;curved&quot;:0,&quot;rounded&quot;:0};" vertex="1" parent="1">
          <mxGeometry x="800" y="40" width="100" height="650" as="geometry" />
        </mxCell>
        <mxCell id="OxUR2oeyCinwsfpec9Tg-43" style="edgeStyle=elbowEdgeStyle;rounded=0;orthogonalLoop=1;jettySize=auto;html=1;elbow=vertical;curved=0;" edge="1" parent="OxUR2oeyCinwsfpec9Tg-5" source="OxUR2oeyCinwsfpec9Tg-6" target="OxUR2oeyCinwsfpec9Tg-24">
          <mxGeometry relative="1" as="geometry">
            <mxPoint x="130" y="540" as="targetPoint" />
            <Array as="points">
              <mxPoint x="120" y="510" />
            </Array>
          </mxGeometry>
        </mxCell>
        <mxCell id="OxUR2oeyCinwsfpec9Tg-6" value="" style="html=1;points=[];perimeter=orthogonalPerimeter;outlineConnect=0;targetShapes=umlLifeline;portConstraint=eastwest;newEdgeStyle={&quot;edgeStyle&quot;:&quot;elbowEdgeStyle&quot;,&quot;elbow&quot;:&quot;vertical&quot;,&quot;curved&quot;:0,&quot;rounded&quot;:0};" vertex="1" parent="OxUR2oeyCinwsfpec9Tg-5">
          <mxGeometry x="45" y="440" width="10" height="40" as="geometry" />
        </mxCell>
        <mxCell id="OxUR2oeyCinwsfpec9Tg-24" value="" style="html=1;points=[];perimeter=orthogonalPerimeter;outlineConnect=0;targetShapes=umlLifeline;portConstraint=eastwest;newEdgeStyle={&quot;edgeStyle&quot;:&quot;elbowEdgeStyle&quot;,&quot;elbow&quot;:&quot;vertical&quot;,&quot;curved&quot;:0,&quot;rounded&quot;:0};" vertex="1" parent="OxUR2oeyCinwsfpec9Tg-5">
          <mxGeometry x="45" y="520" width="10" height="40" as="geometry" />
        </mxCell>
        <mxCell id="OxUR2oeyCinwsfpec9Tg-31" value="" style="endArrow=classic;html=1;rounded=0;" edge="1" parent="1" source="aM9ryv3xv72pqoxQDRHE-5" target="OxUR2oeyCinwsfpec9Tg-30">
          <mxGeometry width="50" height="50" relative="1" as="geometry">
            <mxPoint x="450" y="260" as="sourcePoint" />
            <mxPoint x="500" y="210" as="targetPoint" />
            <Array as="points">
              <mxPoint x="400" y="310" />
            </Array>
          </mxGeometry>
        </mxCell>
        <mxCell id="OxUR2oeyCinwsfpec9Tg-32" value="Gửi lại tinh chỉnh thông số" style="text;html=1;align=center;verticalAlign=middle;resizable=0;points=[];autosize=1;strokeColor=none;fillColor=none;" vertex="1" parent="1">
          <mxGeometry x="260" y="278" width="160" height="30" as="geometry" />
        </mxCell>
        <mxCell id="OxUR2oeyCinwsfpec9Tg-36" value="" style="endArrow=classic;html=1;rounded=0;" edge="1" parent="1" source="OxUR2oeyCinwsfpec9Tg-3">
          <mxGeometry width="50" height="50" relative="1" as="geometry">
            <mxPoint x="569.5" y="420" as="sourcePoint" />
            <mxPoint x="239.81034482758605" y="420" as="targetPoint" />
            <Array as="points">
              <mxPoint x="410" y="420" />
            </Array>
          </mxGeometry>
        </mxCell>
        <mxCell id="OxUR2oeyCinwsfpec9Tg-38" value="" style="endArrow=classic;html=1;rounded=0;" edge="1" parent="1" target="OxUR2oeyCinwsfpec9Tg-3">
          <mxGeometry width="50" height="50" relative="1" as="geometry">
            <mxPoint x="570" y="350" as="sourcePoint" />
            <mxPoint x="500" y="300" as="targetPoint" />
          </mxGeometry>
        </mxCell>
        <mxCell id="OxUR2oeyCinwsfpec9Tg-40" value="Cảm biến" style="text;html=1;align=center;verticalAlign=middle;resizable=0;points=[];autosize=1;strokeColor=none;fillColor=none;" vertex="1" parent="1">
          <mxGeometry x="610" y="320" width="70" height="30" as="geometry" />
        </mxCell>
        <mxCell id="OxUR2oeyCinwsfpec9Tg-41" value="Gửi xác nhận thông số" style="text;html=1;align=center;verticalAlign=middle;resizable=0;points=[];autosize=1;strokeColor=none;fillColor=none;" vertex="1" parent="1">
          <mxGeometry x="270" y="390" width="140" height="30" as="geometry" />
        </mxCell>
        <mxCell id="OxUR2oeyCinwsfpec9Tg-44" value="hiển thị" style="text;html=1;align=center;verticalAlign=middle;resizable=0;points=[];autosize=1;strokeColor=none;fillColor=none;" vertex="1" parent="1">
          <mxGeometry x="945" y="520" width="60" height="30" as="geometry" />
        </mxCell>
        <mxCell id="OxUR2oeyCinwsfpec9Tg-45" value="" style="endArrow=classic;html=1;rounded=0;" edge="1" parent="1" source="aM9ryv3xv72pqoxQDRHE-5" target="aM9ryv3xv72pqoxQDRHE-1">
          <mxGeometry width="50" height="50" relative="1" as="geometry">
            <mxPoint x="430" y="380" as="sourcePoint" />
            <mxPoint x="480" y="330" as="targetPoint" />
            <Array as="points">
              <mxPoint x="160" y="460" />
            </Array>
          </mxGeometry>
        </mxCell>
        <mxCell id="OxUR2oeyCinwsfpec9Tg-46" value="ghi lại dữ liệu&lt;div&gt;&lt;br&gt;&lt;/div&gt;" style="text;html=1;align=center;verticalAlign=middle;resizable=0;points=[];autosize=1;strokeColor=none;fillColor=none;" vertex="1" parent="1">
          <mxGeometry x="110" y="415" width="90" height="40" as="geometry" />
        </mxCell>
      </root>
    </mxGraphModel>
  </diagram>
</mxfile>
